<?xml version="1.0" standalone="no"?>
<!DOCTYPE svg PUBLIC "-//W3C//DTD SVG 20010904//EN"
 "http://www.w3.org/TR/2001/REC-SVG-20010904/DTD/svg10.dtd">
<svg version="1.0" xmlns="http://www.w3.org/2000/svg"
 width="64.000000pt" height="64.000000pt" viewBox="0 0 64.000000 64.000000"
 preserveAspectRatio="xMidYMid meet">

<g transform="translate(0.000000,64.000000) scale(0.100000,-0.100000)"
fill="#000000" stroke="none">
<path d="M80 500 l0 -60 240 0 240 0 0 60 0 60 -49 0 c-40 0 -50 -3 -54 -20
-3 -12 -14 -20 -27 -20 -13 0 -24 8 -27 20 -5 18 -14 20 -83 20 -69 0 -78 -2
-83 -20 -3 -12 -14 -20 -27 -20 -13 0 -24 8 -27 20 -4 17 -14 20 -54 20 l-49
0 0 -60z"/>
<path d="M80 250 l0 -170 121 0 c106 0 120 2 115 16 -3 9 -6 18 -6 20 0 2 -43
4 -95 4 l-95 0 0 150 c0 143 -1 150 -20 150 -19 0 -20 -7 -20 -170z"/>
<path d="M522 358 c2 -31 8 -44 21 -46 14 -3 17 4 17 42 0 40 -3 46 -21 46
-18 0 -20 -5 -17 -42z"/>
<path d="M190 320 c0 -27 3 -30 30 -30 27 0 30 3 30 30 0 27 -3 30 -30 30 -27
0 -30 -3 -30 -30z"/>
<path d="M290 320 c0 -27 3 -30 30 -30 27 0 30 3 30 30 0 27 -3 30 -30 30 -27
0 -30 -3 -30 -30z"/>
<path d="M390 321 c0 -29 0 -29 30 -15 17 9 30 22 30 30 0 9 -11 14 -30 14
-26 0 -30 -3 -30 -29z"/>
<path d="M416 276 c-71 -43 -94 -122 -57 -194 22 -43 84 -82 130 -82 75 0 151
75 151 149 0 51 -35 108 -80 131 -52 26 -96 25 -144 -4z m124 -31 c32 -17 60
-61 60 -95 0 -34 -28 -78 -60 -95 -37 -19 -63 -19 -100 0 -32 17 -60 61 -60
95 0 33 28 78 58 94 35 20 66 20 102 1z"/>
<path d="M475 188 c-7 -38 -5 -44 21 -65 16 -13 32 -23 37 -23 12 0 8 27 -7
39 -8 7 -17 30 -21 52 -9 51 -21 50 -30 -3z"/>
<path d="M190 220 c0 -27 3 -30 30 -30 27 0 30 3 30 30 0 27 -3 30 -30 30 -27
0 -30 -3 -30 -30z"/>
<path d="M290 220 c0 -33 23 -42 34 -12 3 9 9 23 12 30 4 8 -3 12 -20 12 -22
0 -26 -4 -26 -30z"/>
</g>
</svg>
